<?xml version="1.0" encoding="UTF-8"?><svg xmlns="http://www.w3.org/2000/svg" viewBox="0 0 102.53 16.68"><defs><style>.d{fill:#6366ea;}</style></defs><g id="a"/><g id="b"><g id="c"><g><path class="d" d="M8.06,16.52l-3.1-5.02v5.02H0V0H4.96V8.64l3.15-4.71h5.76l-4.71,6.34,4.82,6.25h-5.92Z"/><path class="d" d="M23.15,16.52l-3.1-5.02v5.02h-4.96V0h4.96V8.64l3.15-4.71h5.76l-4.71,6.34,4.82,6.25h-5.92Z"/><path class="d" d="M39.92,6.85v4.09h-10.41V6.85h10.41Z"/><path class="d" d="M45.49,16.1c-.92-.39-1.64-.92-2.18-1.61-.54-.68-.84-1.46-.92-2.32h4.76c.06,.37,.22,.65,.48,.83,.26,.18,.59,.27,.99,.27,.25,0,.45-.06,.6-.17,.15-.11,.22-.25,.22-.41,0-.28-.16-.48-.47-.6-.31-.12-.84-.25-1.59-.4-.91-.18-1.66-.37-2.24-.58-.59-.21-1.1-.57-1.54-1.07-.44-.51-.66-1.21-.66-2.1,0-.77,.21-1.48,.62-2.11,.41-.63,1.02-1.13,1.82-1.5s1.78-.55,2.92-.55c1.7,0,3.03,.42,3.99,1.25,.96,.83,1.54,1.92,1.73,3.26h-4.4c-.08-.34-.23-.61-.47-.79-.24-.19-.56-.28-.96-.28-.25,0-.45,.05-.58,.15-.13,.1-.2,.24-.2,.44,0,.25,.16,.44,.47,.57s.81,.26,1.5,.39c.91,.18,1.67,.38,2.3,.6,.62,.22,1.17,.61,1.63,1.15,.46,.54,.69,1.29,.69,2.24,0,.74-.22,1.41-.65,2.01-.43,.6-1.05,1.06-1.87,1.41-.81,.34-1.76,.51-2.85,.51-1.19,0-2.24-.19-3.16-.58Z"/><path class="d" d="M63.81,12.3v4.22h-1.88c-3.45,0-5.18-1.72-5.18-5.16v-3.3h-1.56V3.93h1.56V.89h4.96V3.93h2.05v4.13h-2.05v3.39c0,.3,.07,.51,.21,.65,.14,.13,.38,.2,.7,.2h1.18Z"/><path class="d" d="M68.28,15.9c-1.01-.52-1.8-1.27-2.38-2.24-.57-.97-.86-2.12-.86-3.43s.29-2.45,.86-3.43,1.37-1.72,2.38-2.24,2.15-.78,3.42-.78,2.4,.26,3.42,.78,1.8,1.27,2.38,2.24c.57,.98,.86,2.12,.86,3.43s-.29,2.45-.86,3.43c-.57,.98-1.37,1.72-2.38,2.24s-2.15,.78-3.42,.78-2.4-.26-3.42-.78Zm4.58-4.05c.31-.36,.47-.9,.47-1.62s-.16-1.25-.47-1.62-.7-.55-1.16-.55-.85,.18-1.16,.55c-.31,.36-.47,.9-.47,1.62s.15,1.25,.46,1.62,.7,.55,1.17,.55,.85-.18,1.16-.55Z"/><path class="d" d="M86.72,4.5c.73-.44,1.49-.66,2.28-.66v5.29h-1.41c-.94,0-1.63,.16-2.07,.49-.44,.33-.66,.91-.66,1.74v5.16h-4.96V3.93h4.96v2.32c.51-.73,1.12-1.31,1.85-1.75Z"/><path class="d" d="M102.46,11.1h-7.97c.07,1.09,.53,1.63,1.36,1.63,.54,0,.92-.25,1.16-.74h5.25c-.18,.89-.55,1.69-1.13,2.4-.57,.71-1.29,1.27-2.17,1.67-.87,.41-1.83,.61-2.87,.61-1.25,0-2.36-.26-3.34-.78s-1.73-1.27-2.28-2.24c-.54-.97-.81-2.12-.81-3.43s.27-2.45,.81-3.43c.54-.98,1.3-1.72,2.28-2.24s2.09-.78,3.34-.78,2.36,.26,3.34,.77,1.73,1.25,2.28,2.2c.54,.95,.82,2.08,.82,3.37,0,.34-.02,.67-.07,.98Zm-4.96-2.17c0-.42-.13-.73-.4-.95-.27-.22-.6-.32-1-.32-.88,0-1.39,.42-1.54,1.27h2.95Z"/></g></g></g></svg>